<svg width="30" height="30" viewBox="0 0 30 30" fill="none" xmlns="http://www.w3.org/2000/svg">
<path d="M14.9286 28.8571C22.621 28.8571 28.8571 22.621 28.8571 14.9286C28.8571 7.23603 22.621 1 14.9286 1C7.23603 1 1 7.23603 1 14.9286C1 22.621 7.23603 28.8571 14.9286 28.8571Z" stroke="#65DAB0" stroke-linecap="round" stroke-linejoin="round"/>
<path d="M18.1785 24.6786V22.0837C18.2134 21.6526 18.1536 21.2191 18.003 20.8123C17.8526 20.4054 17.6148 20.0344 17.3058 19.7239C20.2214 19.4075 23.2857 18.3315 23.2857 13.3949C23.2854 12.1325 22.7868 10.9186 21.8929 10.0043C22.3162 8.8999 22.2862 7.67915 21.8093 6.59566C21.8093 6.59566 20.7135 6.27922 18.1785 7.93381C16.0502 7.37217 13.8069 7.37217 11.6786 7.93381C9.14357 6.27922 8.04785 6.59566 8.04785 6.59566C7.57091 7.67915 7.54099 8.8999 7.96428 10.0043C7.06369 10.9253 6.56448 12.1503 6.57142 13.4219C6.57142 18.3224 9.63571 19.3984 12.5514 19.7509C12.2459 20.0583 12.0103 20.4249 11.8599 20.8269C11.7095 21.2288 11.6477 21.6569 11.6786 22.0837V24.6786" stroke="#65DAB0" stroke-linecap="round" stroke-linejoin="round"/>
<path d="M11.6786 22.8703C8.89285 23.7502 6.57142 22.8703 5.17856 20.1579" stroke="#65DAB0" stroke-linecap="round" stroke-linejoin="round"/>
</svg>
