<svg width="34" height="27" viewBox="0 0 34 27" fill="none" xmlns="http://www.w3.org/2000/svg">
<path d="M23.0242 22.287L24.7454 25.7273C26.9378 24.8143 29.208 23.9013 31.6215 22.33C32.4632 21.7819 32.9735 20.8506 32.9937 19.8469C33.0987 14.6942 31.8892 9.51392 28.8266 4.03694C28.4257 3.32006 27.7579 2.79456 26.9834 2.51976C25.1357 1.86438 23.8814 1.35779 21.7333 1L20.4425 3.36522C20.4425 3.36522 19.1516 2.93518 17.0001 2.93518C14.8486 2.93518 13.5577 3.36522 13.5577 3.36522L12.2668 1C10.1188 1.35779 8.8645 1.86438 7.01682 2.51976C6.24228 2.79456 5.57446 3.32006 5.17364 4.03694C2.11102 9.51392 0.901455 14.6942 1.00623 19.8469C1.02667 20.8506 1.537 21.7819 2.37866 22.33C4.79218 23.9013 7.06221 24.8143 9.25478 25.7273L10.976 22.287M25.606 20.5668C25.606 20.5668 21.3031 22.717 17.0001 22.717C12.6971 22.717 8.39419 20.5668 8.39419 20.5668" stroke="#65DAB0" stroke-linecap="round" stroke-linejoin="round"/>
<path d="M22.4545 17.7273C21.0487 17.7273 19.9091 16.262 19.9091 14.4546C19.9091 12.6471 21.0487 11.1818 22.4545 11.1818C23.8604 11.1818 25 12.6471 25 14.4546C25 16.262 23.8604 17.7273 22.4545 17.7273Z" fill="#65DAB0"/>
<path d="M11.5455 17.7273C10.1396 17.7273 9 16.262 9 14.4546C9 12.6471 10.1396 11.1818 11.5455 11.1818C12.9513 11.1818 14.0909 12.6471 14.0909 14.4546C14.0909 16.262 12.9513 17.7273 11.5455 17.7273Z" fill="#65DAB0"/>
</svg>
